# xmcd
#
# Track frame offsets:
#	150
#	16960
#	30825
#	45893
#	58648
#	75248
#	90753
#	103325
#	114228
#	130008
#	149580
#	167938
#	183730
#	198100
#
# Disc length: 2829 seconds
#
# Revision: 2
# Processed by: cddbd v1.5.2PL0 Copyright (c) Steve Scherf et al.
# Submitted via: audiograbber 1.83.01
#
DISCID=a40b0b0e
DTITLE=Various Artist -  Hot Hits Country Volume 32
DYEAR=1900
DGENRE=
TTITLE0=Lorrie Morgan - My Night To Howl
TTITLE1=Doug Stone - Addicted To A Dollar
TTITLE2=Randy Travis - Before You Kill Us All
TTITLE3=Shenandoah - If Bubba Can Dance
TTITLE4=Joe Diffie - In My Own Backyard
TTITLE5=Toby Keith - Wish I Didn't Know Now
TTITLE6=Rick Trevino - Honky Tonk Crowd
TTITLE7=George Jones - Never Bit A Bullet Like This
TTITLE8=Reba McEntire - Why Haven't I Heard From You
TTITLE9=Vince Gill - Whenever You Come Around
TTITLE10=John Michael Montgomery - Rope The Moon
TTITLE11=John Berry - Your Love Amazes Me
TTITLE12=Mark Chesnut - Woman, Sensuous Woman
TTITLE13=Steve Warnier - It Won't Be Over You
EXTD=
EXTT0=
EXTT1=Stone - Doug
EXTT2=Travis - Randy
EXTT3=Shenandoah
EXTT4=Diffie - Joe
EXTT5=Keith - Toby
EXTT6=Trevino - Rick
EXTT7=Jones - George
EXTT8=Kershaw - Sammy
EXTT9=Gill - Vince
EXTT10=Montgomery - John Michael
EXTT11=Berry - John
EXTT12=Chesnutt - Mark
EXTT13=Wariner - Steve
PLAYORDER=
